<svg width="31" height="47" viewBox="0 0 31 47" fill="none" xmlns="http://www.w3.org/2000/svg">
<path d="M8.5964 0.474599C8.5964 0.474599 8.5964 3.5746 7.8964 5.1746C7.1964 6.7746 5.4964 7.6746 7.1964 13.0746C7.6964 14.7746 8.3964 17.2746 6.7964 17.6746C5.1964 18.0746 2.6964 18.9746 1.2964 20.5746C-0.00360441 22.1746 -0.303605 23.8746 0.296396 24.5746C0.896396 25.2746 1.3964 25.4746 3.7964 24.8746C6.1964 24.2746 6.7964 25.9746 6.8964 27.8746C6.9964 29.7746 7.7964 30.9746 8.8964 33.1746C10.8964 37.3746 10.3964 41.4746 10.4964 44.1746C10.5964 45.6746 12.1964 46.0746 12.1964 46.0746C14.8964 46.3746 16.2964 41.0746 18.3964 40.8746C19.7964 40.6746 21.5964 44.6746 23.5964 44.8746C25.9964 45.1746 28.7964 44.0746 27.1964 42.3746C25.5964 40.6746 24.8964 38.8746 25.5964 36.8746C28.7964 27.0746 23.4964 22.2746 27.5964 18.9746C29.4964 17.4746 31.1964 14.7746 29.9964 13.1746C28.7964 11.5746 26.7964 10.7746 28.2964 9.2746C29.7964 7.7746 31.9964 2.8746 30.3964 2.4746C28.7964 2.0746 22.4964 7.4746 20.5964 10.4746C18.5964 13.7746 16.8964 9.2746 17.8964 6.5746C18.3964 5.2746 20.7964 2.5746 18.7964 1.5746C16.7964 0.574599 15.8964 0.874599 14.0964 1.3746C12.2964 1.8746 9.7964 -1.1254 8.5964 0.474599Z" fill="#2429AF"/>
</svg>
