<svg width="31" height="46" viewBox="0 0 31 46" fill="none" xmlns="http://www.w3.org/2000/svg">
<path fill-rule="evenodd" clip-rule="evenodd" d="M20.7018 10.3164C18.6629 13.5838 16.9996 9.13799 18.019 6.45979C18.1386 6.1415 18.3799 5.73455 18.6443 5.28854C19.4478 3.93317 20.4653 2.21704 18.9312 1.53191C16.8923 0.621322 15.8728 0.835577 14.1022 1.42478C13.3023 1.69094 12.3383 1.19198 11.4127 0.712969C10.2894 0.131593 9.22287 -0.420392 8.57568 0.46063C8.57568 0.46063 8.57568 3.56734 7.93182 5.17426C7.80474 5.49142 7.63376 5.78354 7.45479 6.08933C6.72696 7.33287 5.86679 8.80252 7.28795 13.1017C7.8245 14.7622 8.46837 17.2797 6.85871 17.6547C5.24904 18.0296 2.67358 18.9402 1.3322 20.5471C-0.00918972 22.154 -0.277467 23.8681 0.259087 24.5644C0.795642 25.2607 1.38585 25.5286 3.74669 24.8322C6.10753 24.1359 6.7514 25.9571 6.85871 27.8318C6.94703 29.3748 7.50787 30.4824 8.30189 32.0505C8.4726 32.3876 8.65408 32.7461 8.84396 33.1346C10.4308 36.4742 10.4064 39.7796 10.3876 42.3395C10.3828 42.9821 10.3784 43.5778 10.4 44.1153C10.4536 45.615 12.1169 45.99 12.1169 45.99C13.6295 46.138 14.7158 44.6168 15.7475 43.1721C16.5822 42.0032 17.3811 40.8845 18.341 40.7407C19.0373 40.6635 19.7957 41.5392 20.622 42.4934C21.5147 43.5243 22.4867 44.6468 23.5455 44.758C25.96 45.0258 28.8038 43.9546 27.1941 42.187C25.5845 40.4193 24.9406 38.7053 25.5845 36.7234C27.1912 31.8581 26.6595 28.2202 26.244 25.3769C25.827 22.5231 25.5269 20.4699 27.6234 18.7795C29.555 17.2261 31.2183 14.6015 30.0379 12.9946C29.6994 12.5339 29.2904 12.1392 28.9145 11.7765C27.9794 10.8741 27.2493 10.1696 28.3209 9.13799C29.8232 7.69176 32.0231 2.71032 30.4671 2.2818C28.9111 1.85329 22.5798 7.20969 20.7018 10.3164ZM12.4116 43.9658C12.4668 43.9373 12.5493 43.8854 12.66 43.793C12.9929 43.5149 13.3573 43.0665 13.8305 42.4131C13.9104 42.3028 13.9955 42.1835 14.0848 42.0583C14.4572 41.536 14.9034 40.9103 15.3543 40.404C15.8913 39.801 16.78 38.9522 18.0448 38.7628L18.0825 38.7571L18.1205 38.7529C19.4054 38.6104 20.368 39.3853 20.8071 39.7754C21.2775 40.1934 21.746 40.7354 22.1214 41.1696C22.1596 41.2138 22.1968 41.2568 22.2329 41.2984C22.6766 41.81 23.0334 42.2068 23.3701 42.4926C23.6352 42.7176 23.765 42.7654 23.7788 42.7716C24.1979 42.8169 24.6441 42.8048 25.0487 42.7423C24.4319 41.9447 23.9333 41.0814 23.6361 40.1346C23.225 38.8256 23.2371 37.476 23.6823 36.1055L23.6853 36.0963C25.1411 31.6878 24.6701 28.4378 24.2628 25.6504C24.2561 25.6046 24.2493 25.5587 24.2426 25.5125C24.0511 24.2053 23.8368 22.7425 24.0076 21.3862C24.2056 19.8129 24.9039 18.4031 26.368 17.2226L26.37 17.2209C27.1581 16.5872 27.844 15.7645 28.198 15.0345C28.3724 14.6749 28.426 14.4206 28.4319 14.2769C28.4344 14.2141 28.4274 14.1844 28.4258 14.1784C28.2369 13.9213 27.9925 13.6683 27.6673 13.3525C27.6293 13.3157 27.588 13.276 27.5442 13.2338C27.2726 12.9726 26.9032 12.6173 26.6161 12.2611C26.2794 11.8432 25.7839 11.1068 25.7894 10.1137C25.7952 9.06568 26.3466 8.26245 26.9338 7.69712C27.2835 7.36048 27.8538 6.48326 28.3211 5.46589C27.8985 5.77342 27.4478 6.1253 26.9843 6.51091C25.0311 8.13574 23.1803 10.0823 22.4134 11.351L22.4061 11.3632L22.3986 11.3752C21.8071 12.323 20.8017 13.4659 19.283 13.4689C17.7083 13.4719 16.8207 12.2693 16.4416 11.5452C16.0082 10.7172 15.7818 9.72115 15.725 8.77122C15.6677 7.81372 15.7726 6.74125 16.1485 5.7519C16.3331 5.26254 16.6565 4.71847 16.8833 4.33699C16.8999 4.30895 16.9161 4.28179 16.9316 4.2556C17.189 3.82141 17.4009 3.45884 17.5535 3.13059C17.0448 2.94956 16.7151 2.91078 16.4527 2.91559C16.0566 2.92284 15.6167 3.02865 14.7337 3.32247C13.6415 3.6859 12.617 3.4142 11.9636 3.17243C11.4377 2.97783 10.8892 2.69514 10.4797 2.48258C10.3946 3.46731 10.2164 4.84971 9.78833 5.91813C9.59877 6.39123 9.32604 6.85459 9.14573 7.16092C9.10812 7.22481 9.07454 7.28187 9.04657 7.33076C8.85076 7.67302 8.7202 7.94064 8.63455 8.25605C8.47303 8.85086 8.37052 10.0044 9.18689 12.474L9.1911 12.4868L9.19106 12.4868C9.46031 13.32 9.84096 14.6044 9.87724 15.7996C9.8954 16.398 9.83699 17.1786 9.46855 17.9142C9.05193 18.7461 8.30966 19.3702 7.31243 19.6025C6.61214 19.7656 5.70397 20.046 4.84468 20.4494C3.96339 20.863 3.27555 21.34 2.86756 21.8288C2.4398 22.3412 2.19924 22.823 2.08455 23.1871C2.35225 23.1387 2.7079 23.0534 3.18089 22.9139C4.01283 22.6686 4.87725 22.5902 5.71552 22.8075C6.58264 23.0322 7.25071 23.5293 7.72546 24.1387C8.58876 25.2467 8.79711 26.6985 8.85544 27.7175C8.91825 28.8149 9.26469 29.5045 10.0282 31.0243C10.2086 31.3833 10.4122 31.7886 10.6409 32.2566L10.6457 32.2664L10.6504 32.2763C12.4602 36.0849 12.4194 39.9952 12.3928 42.5405C12.3872 43.0777 12.3823 43.554 12.3955 43.9558C12.4007 43.9592 12.4061 43.9625 12.4116 43.9658ZM2.00118 23.6634C2.00152 23.6655 2.00163 23.6667 2.00161 23.6667ZM30.419 4.2425C30.4186 4.24323 30.4076 4.24628 30.3871 4.24945C30.4092 4.24334 30.4194 4.24176 30.419 4.2425ZM28.9997 3.25784C28.9988 3.2499 28.9986 3.24565 28.9988 3.24551C28.9989 3.24537 28.9994 3.24934 28.9997 3.25784ZM25.9565 42.4557C25.957 42.4558 25.9524 42.4596 25.9414 42.4669C25.9506 42.4592 25.9561 42.4556 25.9565 42.4557Z" fill="#2429AF"/>
</svg>
